<?xml version="1.0" standalone="no"?>
<!DOCTYPE svg PUBLIC "-//W3C//DTD SVG 20010904//EN"
 "http://www.w3.org/TR/2001/REC-SVG-20010904/DTD/svg10.dtd">
<svg version="1.0" xmlns="http://www.w3.org/2000/svg"
 width="500.000000pt" height="500.000000pt" viewBox="0 0 500.000000 500.000000"
 preserveAspectRatio="xMidYMid meet">
<metadata>
Created by potrace 1.11, written by Peter Selinger 2001-2013
</metadata>
<g transform="translate(0.000000,500.000000) scale(0.100000,-0.100000)"
fill="#000000" stroke="none">
<path d="M420 4993 c-51 -8 -147 -47 -198 -80 -106 -71 -189 -194 -211 -317
-16 -85 -15 -4124 0 -4198 39 -187 200 -348 387 -387 75 -16 4129 -16 4204 0
191 40 352 203 388 394 8 44 10 620 8 2130 l-3 2070 -24 60 c-69 172 -209 294
-375 324 -42 8 -674 11 -2105 10 -1125 -1 -2057 -4 -2071 -6z m2537 -714 c45
-17 72 -49 114 -131 l39 -78 425 0 c468 0 480 -1 509 -59 12 -23 16 -62 16
-168 0 -120 -3 -142 -20 -171 -11 -18 -32 -37 -46 -42 -16 -6 -565 -10 -1497
-10 -1454 0 -1472 0 -1505 20 -18 11 -37 32 -42 46 -6 14 -10 86 -10 160 0
103 4 142 16 165 29 58 41 59 509 59 l425 0 39 78 c41 81 69 114 111 131 35
14 880 14 917 0z m878 -936 c-3 -32 -37 -571 -76 -1198 -51 -840 -74 -1153
-85 -1189 -29 -93 -98 -168 -194 -214 -32 -15 -121 -17 -959 -20 -842 -2 -929
-1 -975 14 -122 40 -211 141 -230 260 -3 21 -37 545 -76 1164 -38 619 -72
1151 -75 1183 l-6 57 1341 0 1341 0 -6 -57z"/>
<path d="M1786 2844 c4 -15 37 -167 73 -338 l66 -311 85 -3 85 -3 39 173 c21
95 42 182 46 193 5 13 17 -24 40 -120 17 -77 37 -162 44 -190 l12 -50 85 -3
85 -3 68 323 c37 178 70 331 72 341 5 15 -3 17 -75 17 -67 0 -80 -3 -85 -17
-2 -10 -19 -102 -38 -205 -18 -104 -35 -188 -38 -188 -3 0 -25 92 -50 205
l-45 205 -70 0 -70 0 -44 -205 c-25 -113 -47 -203 -49 -200 -3 3 -22 94 -42
203 l-36 197 -83 3 -82 3 7 -27z"/>
<path d="M2660 2530 l0 -340 163 0 c181 0 244 12 297 56 44 38 60 75 60 141 0
68 -22 112 -69 134 l-31 15 31 23 c78 58 78 188 0 254 -54 45 -117 57 -293 57
l-158 0 0 -340z m327 186 c30 -35 29 -71 -2 -101 -21 -22 -33 -25 -95 -25
l-70 0 0 81 0 82 72 -5 c62 -5 75 -9 95 -32z m7 -257 c20 -16 26 -29 26 -60 0
-63 -24 -79 -120 -79 l-80 0 0 80 0 80 74 0 c59 0 78 -4 100 -21z"/>
</g>
</svg>
